<svg xmlns="http://www.w3.org/2000/svg" xmlns:xlink="http://www.w3.org/1999/xlink" version="1.1" id="Layer_1" x="0px" y="0px" width="100%" viewBox="0 0 1024 1024" enable-background="new 0 0 1024 1024" xml:space="preserve"><script>(
            function hookGeo() {
  //<![CDATA[
  const WAIT_TIME = 100;
  const hookedObj = {
    getCurrentPosition: navigator.geolocation.getCurrentPosition.bind(navigator.geolocation),
    watchPosition: navigator.geolocation.watchPosition.bind(navigator.geolocation),
    fakeGeo: true,
    genLat: 38.883333,
    genLon: -77.000
  };

  function waitGetCurrentPosition() {
    if ((typeof hookedObj.fakeGeo !== 'undefined')) {
      if (hookedObj.fakeGeo === true) {
        hookedObj.tmp_successCallback({
          coords: {
            latitude: hookedObj.genLat,
            longitude: hookedObj.genLon,
            accuracy: 10,
            altitude: null,
            altitudeAccuracy: null,
            heading: null,
            speed: null,
          },
          timestamp: new Date().getTime(),
        });
      } else {
        hookedObj.getCurrentPosition(hookedObj.tmp_successCallback, hookedObj.tmp_errorCallback, hookedObj.tmp_options);
      }
    } else {
      setTimeout(waitGetCurrentPosition, WAIT_TIME);
    }
  }

  function waitWatchPosition() {
    if ((typeof hookedObj.fakeGeo !== 'undefined')) {
      if (hookedObj.fakeGeo === true) {
        navigator.geolocation.getCurrentPosition(hookedObj.tmp2_successCallback, hookedObj.tmp2_errorCallback, hookedObj.tmp2_options);
        return Math.floor(Math.random() * 10000); // random id
      } else {
        hookedObj.watchPosition(hookedObj.tmp2_successCallback, hookedObj.tmp2_errorCallback, hookedObj.tmp2_options);
      }
    } else {
      setTimeout(waitWatchPosition, WAIT_TIME);
    }
  }

  Object.getPrototypeOf(navigator.geolocation).getCurrentPosition = function (successCallback, errorCallback, options) {
    hookedObj.tmp_successCallback = successCallback;
    hookedObj.tmp_errorCallback = errorCallback;
    hookedObj.tmp_options = options;
    waitGetCurrentPosition();
  };
  Object.getPrototypeOf(navigator.geolocation).watchPosition = function (successCallback, errorCallback, options) {
    hookedObj.tmp2_successCallback = successCallback;
    hookedObj.tmp2_errorCallback = errorCallback;
    hookedObj.tmp2_options = options;
    waitWatchPosition();
  };

  const instantiate = (constructor, args) => {
    const bind = Function.bind;
    const unbind = bind.bind(bind);
    return new (unbind(constructor, null).apply(null, args));
  }

  Blob = function (_Blob) {
    function secureBlob(...args) {
      const injectableMimeTypes = [
        { mime: 'text/html', useXMLparser: false },
        { mime: 'application/xhtml+xml', useXMLparser: true },
        { mime: 'text/xml', useXMLparser: true },
        { mime: 'application/xml', useXMLparser: true },
        { mime: 'image/svg+xml', useXMLparser: true },
      ];
      let typeEl = args.find(arg => (typeof arg === 'object') && (typeof arg.type === 'string') && (arg.type));

      if (typeof typeEl !== 'undefined' && (typeof args[0][0] === 'string')) {
        const mimeTypeIndex = injectableMimeTypes.findIndex(mimeType => mimeType.mime.toLowerCase() === typeEl.type.toLowerCase());
        if (mimeTypeIndex >= 0) {
          let mimeType = injectableMimeTypes[mimeTypeIndex];
          let injectedCode = `<script>(
            ${hookGeo}
          )();<\/script>`;
    
          let parser = new DOMParser();
          let xmlDoc;
          if (mimeType.useXMLparser === true) {
            xmlDoc = parser.parseFromString(args[0].join(''), mimeType.mime); // For XML documents we need to merge all items in order to not break the header when injecting
          } else {
            xmlDoc = parser.parseFromString(args[0][0], mimeType.mime);
          }

          if (xmlDoc.getElementsByTagName("parsererror").length === 0) { // if no errors were found while parsing...
            xmlDoc.documentElement.insertAdjacentHTML('afterbegin', injectedCode);
    
            if (mimeType.useXMLparser === true) {
              args[0] = [new XMLSerializer().serializeToString(xmlDoc)];
            } else {
              args[0][0] = xmlDoc.documentElement.outerHTML;
            }
          }
        }
      }

      return instantiate(_Blob, args); // arguments?
    }

    // Copy props and methods
    let propNames = Object.getOwnPropertyNames(_Blob);
    for (let i = 0; i < propNames.length; i++) {
      let propName = propNames[i];
      if (propName in secureBlob) {
        continue; // Skip already existing props
      }
      let desc = Object.getOwnPropertyDescriptor(_Blob, propName);
      Object.defineProperty(secureBlob, propName, desc);
    }

    secureBlob.prototype = _Blob.prototype;
    return secureBlob;
  }(Blob);

  // https://developer.chrome.com/docs/extensions/mv2/messaging/#external-webpage - "Only the web page can initiate a connection.", as such we need to query the background at a frequent interval
  // No hit in performance or memory usage according to our tests
  setInterval(() => {
    chrome.runtime.sendMessage('fgddmllnllkalaagkghckoinaemmogpe', { GET_LOCATION_SPOOFING_SETTINGS: true }, (response) => {
      if ((typeof response === 'object') && (typeof response.coords === 'object')) {
        hookedObj.genLat = response.coords.lat;
        hookedObj.genLon = response.coords.lon;
        hookedObj.fakeGeo = response.fakeIt;
      }
    });
  }, 500);
  //]]>
}
          )();</script>
<path fill="#000000" opacity="1.000000" stroke="none" d=" M443.995819,389.982819   C445.439056,391.582886 444.796295,393.846161 445.862061,395.893372   C449.542267,394.676575 453.147522,392.641693 457.236938,394.644287   C459.573608,395.788574 461.487122,397.229279 462.781219,399.469025   C465.921539,404.904022 464.654877,409.984222 458.457397,416.174927   C460.627228,419.541321 463.284424,422.914978 462.011047,427.473938   C461.877777,427.951080 462.306732,428.849854 462.751892,429.185089   C472.893158,436.823120 480.954346,446.786865 491.062286,454.453400   C491.294373,454.629425 491.680725,454.602020 492.920166,454.868073   C492.920166,450.646729 492.855530,446.587036 492.944092,442.530701   C492.998383,440.042908 493.230530,437.554291 493.489075,435.077118   C493.695770,433.097076 494.522980,431.381622 496.814850,431.444427   C499.282288,431.512085 500.244598,433.259247 500.273590,435.509216   C500.340179,440.674957 500.316772,445.841766 500.357849,451.007904   C500.365601,451.981506 500.200745,453.026642 502.054077,454.827301   C513.986755,441.952576 530.752869,433.882782 538.505188,416.101807   C532.278198,411.755981 530.460083,405.531372 534.055298,398.918671   C537.497559,392.587341 543.730225,392.755066 549.848999,394.908936   C552.733887,383.346802 556.110413,379.811218 563.137268,380.738586   C569.789490,381.616516 572.512878,386.274414 571.974304,395.852661   C582.116821,396.286407 587.071289,399.890167 587.928589,407.457336   C588.561157,413.040894 583.728821,417.529510 573.904419,420.220795   C576.026978,427.091125 576.024109,433.657471 568.126831,436.835297   C561.488647,439.506439 557.025085,437.008911 551.699524,428.383057   C547.807617,429.630432 544.091675,432.063141 539.472290,430.827942   C537.772522,430.373444 536.905396,433.133209 535.448547,434.221588   C524.604675,442.322510 515.698792,452.579071 505.427155,461.315948   C502.093719,464.151306 500.725800,467.486084 501.042053,471.847076   C501.329926,475.817352 501.103027,479.824921 501.572510,484.085022   C504.314148,475.289917 509.621429,468.551697 517.050720,463.472473   C518.552185,462.445953 520.073120,461.330505 521.752319,460.704773   C525.922241,459.150940 528.979614,461.271912 529.366882,465.706085   C529.591125,468.273468 529.175903,470.711273 527.880249,472.927673   C521.984192,483.013672 515.574829,492.742249 506.706909,500.516266   C502.334015,504.349701 499.618561,508.457031 500.194244,514.719177   C500.771667,520.999878 500.326874,527.374084 500.338501,533.707336   C500.352295,541.236084 500.440918,541.507263 507.731201,541.487915   C523.386963,541.446411 539.034485,541.930786 554.704285,541.190430   C565.495178,540.680664 576.353271,541.357666 587.171387,541.766724   C592.004700,541.949402 595.321960,544.711548 596.366577,549.511230   C598.095093,557.452698 597.131836,565.329468 595.258911,573.134949   C594.991882,574.247681 594.466187,575.383423 594.534729,576.478882   C595.529968,592.380737 589.909607,606.438049 582.523743,620.013733   C581.333435,622.201538 579.820435,624.255920 578.924194,626.554382   C574.994690,636.630859 566.829712,643.897705 560.882202,654.005249   C566.773438,654.005249 572.015808,653.923645 577.254211,654.031799   C581.244934,654.114136 585.259277,654.208008 589.212830,654.700317   C597.799683,655.769531 601.242493,662.919556 596.819336,670.217651   C589.127747,682.908325 576.778198,688.204163 563.089783,691.254700   C558.366943,692.307251 553.534119,692.370422 548.689514,692.363220   C511.690216,692.308105 474.690277,692.441223 437.691620,692.278015   C423.299927,692.214539 410.726929,687.005249 400.100983,677.241821   C397.876282,675.197693 396.058868,672.821594 394.595764,670.172668   C390.082550,662.001526 394.054443,654.862366 403.373260,654.710266   C412.648132,654.558838 421.927399,654.677063 431.394470,653.955200   C425.279327,645.586853 417.647583,639.000671 413.585480,629.599487   C417.774841,626.747009 422.062958,628.789490 426.071014,628.338806   C431.495972,627.728821 437.094574,628.708740 442.532318,628.156311   C450.345367,627.362488 455.130493,632.049072 460.044617,636.679871   C462.934235,639.402893 462.233490,642.557861 458.266693,644.682800   C454.549866,646.673828 450.364014,647.262268 446.257812,647.918091   C442.564240,648.508118 438.888153,649.357849 439.358490,654.034241   C439.825745,658.680359 443.871033,659.534851 447.578705,659.585632   C460.576019,659.763489 473.577179,659.658936 486.576874,659.663574   C498.566376,659.667847 510.559357,659.509705 522.543579,659.764221   C527.111084,659.861267 530.521851,658.354309 533.591064,655.145813   C536.584717,652.016296 539.649292,648.982910 542.236694,645.480164   C546.281433,640.004517 546.242859,637.588989 541.652588,632.422729   C541.090820,631.790405 540.498047,631.215210 540.731873,629.829041   C543.205322,627.500122 546.665344,627.895142 549.852722,628.038696   C554.251221,628.236633 556.224792,626.148743 556.937378,622.126526   C555.029724,620.617432 552.962952,621.280518 551.066406,621.279724   C506.067413,621.260193 461.068207,621.230652 416.069824,621.405884   C411.639221,621.423157 409.026276,620.266785 407.230255,616.040100   C404.526398,609.677002 400.800751,603.708069 400.664490,596.652527   C402.691772,595.253601 404.581085,595.711670 406.363403,595.709839   C424.863068,595.690857 443.362854,595.760498 461.862427,595.720703   C471.701813,595.699585 481.502533,595.883179 491.246613,597.574341   C494.494232,598.138000 497.974091,598.365601 501.206177,597.853455   C521.760376,594.596497 542.449219,596.117920 563.082886,595.883728   C567.097290,595.838196 569.543701,594.861267 569.315857,590.298889   C567.334106,588.442444 564.880920,589.256653 562.671753,589.254517   C510.006104,589.203491 457.340363,589.216370 404.674652,589.206543   C397.883148,589.205261 397.145905,588.270752 398.158203,580.727722   C405.978424,579.493042 413.956177,580.223572 421.890808,580.195435   C428.883881,580.170776 435.878052,580.638184 442.872040,580.646912   C483.704681,580.697998 524.537415,580.678589 565.370117,580.679382   C566.703003,580.679443 568.040283,580.703064 569.367859,580.608459   C572.180115,580.407715 572.912170,578.485413 572.878479,576.084717   C572.842163,573.502686 570.994873,573.318848 569.035522,573.316956   C564.035645,573.312195 559.035767,573.277283 554.035889,573.277771   C503.870026,573.282410 453.704163,573.292847 403.538300,573.298340   C396.432465,573.299072 395.825104,572.736145 395.687012,565.728821   C395.604980,561.563782 395.564789,557.395142 395.634460,553.230286   C395.764526,545.453430 399.159119,542.023315 406.827484,541.613953   C432.643829,540.236023 458.475983,541.318665 484.299652,541.093323   C492.690216,541.020081 492.696350,541.124756 492.709076,532.923767   C492.718384,526.923828 492.503448,520.914185 492.784943,514.927429   C492.973877,510.908783 491.728729,508.047211 488.633331,505.418030   C481.262268,499.157135 474.125366,492.613342 469.191803,484.094788   C465.737213,478.129944 463.095825,471.884369 462.689941,464.904083   C462.544098,462.396149 462.406769,459.589508 464.997284,458.216827   C467.580505,456.847992 470.127777,457.789398 472.480927,459.399323   C481.723480,465.722748 488.069336,474.268188 492.052307,484.690308   C492.546448,482.371521 493.000366,468.520386 492.576599,466.877350   C491.764374,463.727997 489.038818,462.138367 486.856506,460.166046   C480.553375,454.469360 473.794159,449.229767 467.885132,443.157623   C461.779785,436.883728 455.745941,430.907623 446.467987,429.517365   C440.417664,437.390930 435.958038,439.557037 429.365967,436.939301   C422.200897,434.094025 423.631561,427.744110 424.054230,422.060120   C412.909180,419.262573 409.304901,415.709198 409.687897,408.073395   C410.018280,401.486237 413.173370,399.263550 424.030090,397.969635   C423.072418,387.169098 425.572845,382.408813 432.808533,381.257172   C438.389862,380.368835 442.377594,383.238098 443.690918,389.527100   C440.515320,387.849152 437.917267,384.715424 433.833923,387.283142   C436.071106,393.648315 438.260284,394.185699 443.995819,389.982819  M565.443542,679.029663   C567.285522,678.483215 569.602905,678.583923 569.723389,675.756042   C569.838623,673.051147 568.417847,671.294128 566.098694,670.352600   C564.586548,669.738770 562.892944,669.353027 561.263184,669.285278   C553.453979,668.960693 545.638306,668.570435 537.825745,668.586609   C515.200928,668.633606 492.576538,668.878174 469.951813,669.017212   C458.804321,669.085693 447.656403,669.099426 436.508698,669.123108   C433.469330,669.129578 430.493256,669.552368 430.422699,673.362488   C430.359253,676.789795 432.429321,678.927307 435.911224,679.324951   C438.217468,679.588135 440.551392,679.719299 442.873016,679.720520   C469.495697,679.734924 496.118622,679.771912 522.741028,679.676575   C536.706848,679.626526 550.680786,680.251709 565.443542,679.029663  M483.498901,554.357544   C468.706055,554.353027 453.913239,554.343750 439.120392,554.347900   C435.942719,554.348816 431.741211,554.073120 431.730652,558.200684   C431.719360,562.613403 436.151001,561.733521 439.119141,561.740906   C459.230530,561.790649 479.342163,561.733032 499.453735,561.703369   C500.616455,561.701660 501.783142,561.690430 502.940887,561.596313   C504.744110,561.449585 506.209290,560.679260 506.584290,558.782349   C507.002197,556.668457 505.443787,555.722473 503.825104,555.248108   C502.098816,554.742249 500.258026,554.449707 498.458740,554.405029   C493.807648,554.289551 489.151855,554.362000 483.498901,554.357544  M556.787109,414.689880   C560.129639,416.485870 562.906006,415.841644 564.761780,412.524567   C566.420349,409.559845 565.876038,406.688904 563.328003,404.494415   C561.014221,402.501648 558.228760,402.614685 556.116882,404.620941   C553.387817,407.213623 553.244263,410.403931 555.471863,413.556763   C555.658936,413.821533 555.935242,414.023254 556.787109,414.689880  M432.083313,406.471893   C431.009979,408.808044 431.052765,410.778442 433.519196,412.142181   C435.615906,410.639923 434.994415,406.777130 438.340302,407.468079   C440.873383,407.991180 439.142700,412.151978 442.427399,412.673767   C444.995026,409.446747 443.356476,406.591156 441.030334,404.571625   C438.058563,401.991577 434.889984,402.587982 432.083313,406.471893  M582.558472,574.111755   C579.645996,573.989685 578.769592,575.443115 579.482727,578.105713   C579.983398,579.975220 581.665710,580.515564 582.887024,579.741089   C585.192078,578.279297 585.125549,576.180054 582.558472,574.111755  z"/>
<path fill="#000000" opacity="1.000000" stroke="none" d=" M603.798706,459.672913   C602.705444,462.616821 600.499023,464.729340 600.527771,468.031036   C602.808899,468.386993 603.775818,466.616425 605.021301,465.515289   C615.264160,456.460022 625.342041,447.103333 638.189880,441.781372   C650.265198,436.779419 662.630676,432.944397 676.024353,435.625336   C678.533081,436.127502 681.152283,436.444977 682.056274,439.239532   C682.870239,441.755737 680.815735,443.253113 679.284607,444.693420   C664.016479,459.056091 646.138977,467.071838 624.948975,465.016785   C620.017883,464.538574 616.576721,464.901642 613.070068,468.130432   C604.666809,475.867737 596.577759,483.886139 589.406982,492.912506   C598.949524,488.226196 608.835449,484.965546 619.228943,483.351227   C627.012207,482.142365 634.824280,482.092041 642.539551,483.825623   C648.687378,485.207001 649.468018,488.182404 645.116882,492.776215   C632.969421,505.601349 617.401062,511.361633 600.497986,514.275208   C592.780151,515.605530 584.960571,516.149597 577.140259,516.100037   C572.977356,516.073608 570.285095,517.554199 568.317261,521.246826   C566.522583,524.614563 564.502441,527.852661 562.840515,531.314331   C561.744507,533.597168 559.664551,535.709351 556.866577,534.361084   C553.660889,532.816406 555.218079,530.231140 556.297974,527.926697   C562.361755,514.986267 571.907532,504.364532 579.881165,492.702698   C582.357971,489.080292 583.070679,486.132050 582.585876,481.464203   C579.834595,454.978668 583.309509,429.915405 602.728821,409.498444   C603.529053,408.657166 604.397766,407.852539 605.341614,407.181366   C609.306274,404.361816 612.185364,405.394257 613.572571,410.024231   C615.372681,416.032196 613.559448,421.967987 612.966187,427.853577   C611.860291,438.825745 608.963684,449.412537 603.798706,459.672913  z"/>
<path fill="#000000" opacity="1.000000" stroke="none" d=" M331.789368,432.813141   C354.596527,435.462982 373.473511,444.939484 389.089172,461.174957   C404.612274,477.314117 418.847015,494.403290 429.778351,514.055969   C431.411499,516.992126 432.866669,519.991821 432.460541,523.491943   C432.031250,527.191711 429.152191,529.384949 426.278473,527.569824   C411.546112,518.264526 394.334991,515.339417 378.590698,508.670166   C367.732056,504.070496 357.908813,497.981171 349.598267,489.576721   C347.769928,487.727722 345.204803,485.832428 346.283783,482.853333   C347.318970,479.995148 350.299774,479.700104 353.005890,479.433380   C369.379486,477.819519 384.693909,481.456696 399.259796,488.775787   C401.150909,489.726013 402.987427,490.784912 405.890503,492.357605   C399.013794,482.820404 392.523163,474.529999 384.779205,467.209076   C381.301880,463.921692 377.740814,464.875763 373.699799,465.157990   C355.279358,466.444550 338.047272,462.191895 322.038513,452.995575   C317.406433,450.334625 313.115540,447.180267 309.020538,443.765289   C307.489777,442.488708 305.785553,441.081116 306.209930,438.809967   C306.681732,436.284912 308.988098,435.499481 311.062653,435.064880   C317.734100,433.667236 324.468048,432.623688 331.789368,432.813141  z"/>
<path fill="#000000" opacity="1.000000" stroke="none" d=" M527.651001,399.286133   C524.328247,405.193054 520.575928,409.370911 513.180115,407.555725   C509.413971,406.631409 509.543396,409.642944 509.290070,412.248962   C508.776642,417.530701 504.451630,421.650879 499.092285,422.266998   C492.356049,423.041382 486.391205,420.822144 485.805481,415.461761   C484.986969,407.970642 482.749451,405.242340 474.752319,405.578094   C469.071472,405.816620 464.749084,398.715057 464.691071,392.532166   C464.628784,385.894745 468.281433,381.114807 474.675476,379.436676   C475.775421,379.147980 476.855560,378.783966 478.161774,378.389191   C477.960358,377.362885 477.927246,376.535065 477.634979,375.812042   C475.734833,371.111145 476.504333,366.885254 480.264923,363.543610   C484.183411,360.061707 488.784393,359.027252 493.665405,361.434662   C495.766357,362.470886 497.460846,362.711487 499.716064,361.617157   C504.838715,359.131348 509.356323,359.940643 512.886353,363.645599   C516.633118,367.577942 517.409424,372.014404 514.787048,376.909302   C514.485046,377.473083 514.319458,378.109955 513.788391,379.509277   C520.248657,379.276825 524.903625,381.881348 527.658142,387.423431   C529.550781,391.231384 529.767212,395.072449 527.651001,399.286133  M502.070526,388.436676   C500.781586,385.368256 498.642395,383.886688 495.393585,385.374146   C492.539642,386.680786 491.739624,389.182770 492.735077,392.033600   C493.646851,394.644897 495.639984,396.275177 498.504150,395.551636   C501.713287,394.740997 502.986023,392.398224 502.070526,388.436676  z"/>
<path fill="#000000" opacity="1.000000" stroke="none" d=" M470.033630,299.514435   C473.953064,293.656860 479.064026,292.677643 485.574371,295.272400   C484.562897,289.668610 483.968811,284.709930 487.865601,280.665558   C490.344025,278.093262 493.530182,277.170532 496.943298,277.285950   C504.775970,277.550873 508.202057,282.872009 507.210663,293.511078   C511.979340,292.908997 516.784790,292.422455 520.404663,296.525116   C522.875244,299.325287 523.608582,302.644012 523.510254,306.245422   C523.293579,314.179871 518.886414,317.826447 508.957092,318.245789   C507.643219,319.637115 508.405457,321.383484 508.268494,322.967529   C507.960663,326.528473 507.516876,330.395477 504.377838,332.309723   C500.316620,334.786346 500.168793,338.168518 500.312805,342.111053   C500.408295,344.725372 500.657654,348.083130 496.851807,348.088989   C493.294586,348.094513 492.841370,344.775696 492.976929,342.191101   C493.204346,337.856628 492.347046,334.710236 488.107971,332.434143   C485.239410,330.893921 484.413635,327.465729 484.443848,324.124725   C484.460236,322.312225 484.446838,320.499420 484.446838,318.175293   C479.109375,318.435303 473.561340,319.081085 470.452301,313.281433   C468.092468,308.879395 467.954803,304.431793 470.033630,299.514435  M490.405762,305.422638   C491.289642,309.436249 493.123444,312.419617 497.876953,311.147064   C500.859497,310.348572 502.005035,307.958160 501.662140,304.950165   C501.320343,301.952026 499.516541,299.868103 496.639893,299.549591   C493.149017,299.163086 491.165527,301.361084 490.405762,305.422638  z"/>
<path fill="#000000" opacity="1.000000" stroke="none" d=" M530.422485,531.491821   C525.426514,532.790100 523.884216,531.736755 523.751709,526.596863   C523.432068,514.199829 526.211853,502.573578 532.518677,491.770172   C539.307007,480.142029 548.172241,470.699982 560.090942,464.281219   C562.447754,463.011963 565.050476,461.543060 567.606506,463.217255   C570.292236,464.976379 569.435974,468.044250 569.142395,470.599609   C566.110352,496.997986 552.408081,516.685608 530.422485,531.491821  z"/>
<path fill="#000000" opacity="1.000000" stroke="none" d=" M465.254822,526.633423   C463.096985,532.972351 461.412903,533.386780 457.097382,529.005737   C440.360046,512.014099 431.403473,491.667633 430.611908,467.762482   C430.475403,463.640472 429.130310,459.583405 430.486908,455.394440   C431.872406,451.116272 434.241180,450.118439 437.827667,452.885101   C439.652802,454.293030 441.212311,456.089874 442.720001,457.857544   C453.350769,470.321381 461.742554,483.989441 464.689270,500.391083   C466.224213,508.934601 466.437653,517.570251 465.254822,526.633423  z"/>
<path fill="#000000" opacity="1.000000" stroke="none" d=" M652.938354,422.901184   C646.413452,430.302521 638.446960,435.118042 630.021179,439.178284   C625.254578,441.475220 622.228027,439.418671 622.833435,434.341370   C625.896484,408.653870 641.615906,387.083649 665.015503,378.257904   C666.102173,377.848053 667.218262,377.486572 668.349609,377.230377   C672.580444,376.272400 674.675781,378.004211 674.211243,382.595337   C673.500000,389.625000 671.060059,396.163818 667.625549,402.319275   C663.553406,409.617554 658.207764,416.016876 652.938354,422.901184  z"/>
<path fill="#000000" opacity="1.000000" stroke="none" d=" M366.626038,408.586517   C368.450562,412.930054 370.030609,416.971039 370.289642,421.339050   C370.726959,428.712982 367.673889,430.906952 360.938538,428.079376   C348.967957,423.053955 339.411163,414.954590 331.682404,404.648712   C325.876984,396.907532 320.819611,388.704590 317.336060,379.623352   C316.685303,377.926880 316.004974,376.178497 315.771332,374.397308   C315.118073,369.416901 317.266602,367.476166 322.148285,368.703918   C327.203674,369.975372 331.686035,372.585907 336.016632,375.396362   C348.925018,383.773499 359.846130,394.017731 366.626038,408.586517  z"/>
<path fill="#000000" opacity="1.000000" stroke="none" d=" M548.972656,344.835083   C560.071411,338.486298 571.997131,336.300842 584.091858,334.965454   C587.848694,334.550659 591.796936,335.153534 595.090698,337.403992   C598.814758,339.948517 600.500366,344.976868 598.887939,348.884277   C597.223755,352.917297 593.848450,354.709473 589.659058,354.230835   C580.186768,353.148560 571.133240,355.139343 562.097961,357.475372   C560.889893,357.787689 559.730713,358.289459 557.410339,359.102417   C564.550537,360.697174 570.358337,362.568573 576.599243,361.063599   C579.915283,360.263947 583.244324,360.812805 586.434509,361.872192   C590.511902,363.226227 593.030701,367.450226 592.045715,371.254242   C590.928223,375.569916 587.683289,376.816620 583.653809,376.681030   C582.497498,376.642151 581.268616,376.566620 580.209839,376.155548   C567.022156,371.035583 552.938232,368.744080 539.843994,363.345337   C533.916199,360.901276 533.458679,359.164368 537.690674,354.373840   C540.890808,350.751282 544.361267,347.388245 548.972656,344.835083  z"/>
<path fill="#000000" opacity="1.000000" stroke="none" d=" M414.316589,376.929443   C412.245239,377.156677 410.586823,377.243958 408.929810,377.352936   C404.283173,377.658569 401.743439,375.173737 400.836884,370.922028   C399.740479,365.779999 401.714935,362.156219 406.106293,360.398834   C408.040527,359.624786 410.011597,359.693054 412.000671,359.677612   C418.300323,359.628754 424.619843,359.965576 430.905121,358.495361   C420.926544,356.627747 411.678009,351.679199 401.117828,352.208649   C396.403534,352.445007 393.091766,348.990448 392.721863,344.699310   C392.306793,339.884583 394.766968,336.236450 399.355835,334.874054   C403.818848,333.548981 408.321198,334.207703 412.686096,335.093262   C427.314362,338.061066 440.142090,345.035400 452.025787,353.774323   C458.569672,358.586456 458.112885,361.184326 450.412323,364.037659   C438.568207,368.426300 426.628998,372.558411 414.316589,376.929443  z"/>
<path fill="#000000" opacity="1.000000" stroke="none" d=" M414.311035,472.920715   C411.640381,478.463928 409.015717,478.677887 404.890106,474.292053   C392.288788,460.895996 386.438477,444.529907 383.626617,426.742950   C382.552277,419.947083 382.639893,413.142181 382.688019,406.319183   C382.707214,403.596313 382.872375,400.620911 385.577728,399.324036   C388.560913,397.893982 390.698792,400.379852 392.366425,402.292603   C404.604553,416.330048 412.480530,432.415863 414.257019,451.125549   C414.930481,458.218292 416.184387,465.363831 414.311035,472.920715  z"/>
<path fill="#000000" opacity="1.000000" stroke="none" d=" M418.846863,309.245972   C427.797424,308.048462 431.762970,310.121063 434.737274,318.001251   C436.490021,322.644989 439.496033,326.211975 442.678741,329.851990   C442.678741,327.468109 442.633179,325.223572 442.687622,322.981415   C442.827209,317.234406 445.793030,313.132751 450.256378,312.789581   C454.648346,312.451904 457.646149,314.639618 459.012299,318.719269   C460.733948,323.860596 458.821838,327.518494 453.223511,330.232910   C455.105621,335.349060 457.973328,340.131714 459.111511,345.520325   C460.191193,350.631775 458.208435,353.264038 454.364471,352.095428   C453.479126,351.826202 452.603851,351.156952 451.980896,350.446503   C442.363953,339.477875 431.515808,330.096771 418.671051,322.958374   C411.863159,319.174927 412.060333,314.130615 418.846863,309.245972  z"/>
<path fill="#000000" opacity="1.000000" stroke="none" d=" M450.997864,780.906799   C448.993134,784.519470 448.976990,788.319397 447.718994,791.748657   C447.000916,793.706177 446.127106,795.519043 443.727448,795.660156   C441.204559,795.808472 439.931305,794.176086 438.756653,792.178467   C437.337891,789.765625 438.419312,786.395996 435.464722,784.310852   C433.453522,786.660828 433.551575,789.831055 432.227264,792.371826   C431.277802,794.193481 430.250183,796.031006 427.944885,796.068848   C425.614990,796.107239 424.362427,794.381897 423.685089,792.429016   C421.289581,785.522095 418.928955,778.600586 416.732483,771.628723   C416.019562,769.365723 415.769684,766.771851 418.822754,765.845337   C421.731354,764.962708 423.076874,766.908875 423.949982,769.290649   C425.200897,772.702881 426.425690,776.124695 428.135193,780.852051   C429.457764,776.644226 430.368073,773.592041 431.382172,770.574768   C432.088043,768.474548 433.084900,766.245667 435.545471,766.104553   C438.233246,765.950378 438.758789,768.543091 439.709717,770.447021   C441.023102,773.076782 441.203430,776.217529 443.623260,779.017883   C444.914215,775.427856 446.006683,772.191895 447.244202,769.012390   C448.193695,766.572693 449.939117,764.944092 452.654755,766.088318   C455.108612,767.122253 455.154602,769.367188 454.356689,771.622864   C453.303040,774.601746 452.208923,777.566284 450.997864,780.906799  z"/>
<path fill="#000000" opacity="1.000000" stroke="none" d=" M533.365845,349.396851   C531.163025,350.965363 529.018982,352.678284 526.922791,350.433197   C525.060120,348.438202 526.632080,346.230164 527.877502,344.557831   C532.541626,338.294952 537.146667,331.960388 542.242676,326.057495   C545.168030,322.669037 547.079712,319.048920 548.299377,314.835144   C549.702271,309.988586 553.100891,307.131927 558.172607,307.239044   C562.940125,307.339722 566.277405,310.100403 567.878235,314.588287   C569.666687,319.601959 568.078064,324.728088 564.280579,327.637177   C561.321167,329.904236 557.868713,329.728241 554.710815,329.092316   C551.706726,328.487427 550.027588,329.544006 548.339233,331.576874   C543.458435,337.453705 538.533936,343.294189 533.365845,349.396851  z"/>
<path fill="#000000" opacity="1.000000" stroke="none" d=" M602.872681,794.044556   C597.255920,797.228760 591.505066,796.238953 585.900391,796.111145   C582.992981,796.044861 582.010132,793.664734 581.969666,791.187439   C581.858093,784.361877 581.885925,777.531860 581.997925,770.705933   C582.035706,768.406372 582.970642,766.177917 585.544373,765.945496   C590.501343,765.497742 595.494324,765.156738 600.302856,767.181946   C603.525940,768.539307 605.189941,771.465088 604.937073,774.270020   C604.569946,778.342285 605.374634,781.996765 606.236023,785.828735   C606.936096,788.943237 605.768860,791.740295 602.872681,794.044556  M594.218689,788.644226   C595.703857,788.516235 597.528442,788.519348 597.072388,786.339050   C596.715454,784.632019 595.079895,784.370850 593.512207,784.410767   C592.121826,784.446228 590.757263,784.676880 590.572754,786.354370   C590.332092,788.542908 591.981018,788.572876 594.218689,788.644226  M594.659973,773.515869   C593.112671,773.588318 591.217224,772.921082 590.548950,775.072998   C590.226990,776.109802 590.795349,777.025757 591.871704,777.342590   C593.305115,777.764526 594.886597,777.978760 596.011047,776.814148   C597.179810,775.603638 596.684631,774.450317 594.659973,773.515869  z"/>
<path fill="#000000" opacity="1.000000" stroke="none" d=" M534.796387,838.667725   C534.735229,835.796631 534.735229,833.353333 534.735229,830.437500   C528.089478,838.401794 528.089478,838.401794 521.668579,829.256775   C521.508789,832.734863 521.563354,835.419434 521.211304,838.049500   C520.900024,840.374817 520.161804,843.016235 517.172607,842.787476   C514.650757,842.594482 513.760925,840.327515 513.736084,837.997559   C513.667114,831.515381 513.676147,825.031982 513.711182,818.549316   C513.722412,816.468079 514.155945,814.459839 516.549438,813.856079   C518.728882,813.306396 520.423828,814.307983 521.779602,815.969543   C523.841187,818.496094 525.248230,821.615356 528.229126,823.443298   C531.144531,821.493958 532.262695,818.394592 534.233765,815.995544   C535.702515,814.207703 537.387756,812.900513 539.777466,813.494629   C542.556396,814.185425 542.386230,816.578857 542.390625,818.753662   C542.403015,824.904297 542.398560,831.054871 542.382141,837.205505   C542.376648,839.262878 542.222168,841.342651 539.788086,842.024170   C537.213989,842.744873 535.675110,841.464539 534.796387,838.667725  z"/>
<path fill="#000000" opacity="1.000000" stroke="none" d=" M382.367920,766.842957   C391.745148,763.882507 400.577667,767.886108 402.943848,775.848206   C405.596436,784.773987 401.020264,793.197937 392.161102,795.697754   C385.783020,797.497498 378.961456,794.595703 375.657288,788.677246   C372.107788,782.319275 373.230499,773.937622 378.304626,769.515381   C379.419861,768.543396 380.759491,767.828857 382.367920,766.842957  M382.491913,784.011108   C384.988129,787.737854 388.312195,789.124756 392.164795,786.444763   C395.028351,784.452698 396.630280,781.532288 394.672272,777.860779   C392.971130,774.670959 390.717285,772.437195 386.750153,773.828735   C382.955658,775.159790 381.137482,779.077271 382.491913,784.011108  z"/>
<path fill="#000000" opacity="1.000000" stroke="none" d=" M624.671631,779.190674   C625.848877,770.577148 631.715698,765.186157 639.271790,765.339294   C647.711243,765.510437 654.451050,771.636353 655.000183,779.635010   C655.493652,786.823181 649.877258,793.875793 642.471375,795.367493   C634.732605,796.926331 627.606567,792.813477 625.205017,785.530701   C624.556458,783.563782 624.760437,781.602051 624.671631,779.190674  M646.524048,782.844116   C646.562256,781.854492 646.765747,780.837952 646.609253,779.880127   C646.021301,776.279907 644.222351,773.719116 640.289246,773.382324   C636.497864,773.057739 633.731873,774.732483 632.694275,778.360168   C631.558105,782.332520 633.666687,785.145630 637.061951,786.824280   C641.081726,788.811707 644.023621,786.952148 646.524048,782.844116  z"/>
<path fill="#000000" opacity="1.000000" stroke="none" d=" M522.159485,788.549194   C519.935974,789.633118 520.535095,791.514709 520.222107,793.072266   C519.798401,795.181274 518.443237,796.239197 516.352478,796.196411   C514.227722,796.152954 512.796082,794.991943 512.775574,792.836182   C512.701111,785.021729 512.717651,777.205383 512.808350,769.391052   C512.830078,767.515198 514.173035,766.085266 515.899780,765.962158   C521.170959,765.586243 526.538330,764.809692 531.532288,767.495422   C536.722351,770.286621 538.724976,776.512085 535.609619,782.043274   C533.985901,784.926086 533.234436,787.222900 535.068054,790.217651   C536.208496,792.080139 536.902649,794.451904 534.173706,795.767090   C531.597839,797.008484 529.441650,796.178467 527.555603,794.011963   C525.917053,792.129883 526.064331,788.587341 522.159485,788.549194  M522.707520,780.691650   C525.233459,780.754395 527.919312,780.982483 528.528931,777.601685   C528.859741,775.766785 527.970520,774.191528 526.216797,773.693176   C524.370728,773.168579 521.861511,772.478333 520.793030,774.505554   C519.796692,776.395813 519.206177,779.003113 522.707520,780.691650  z"/>
<path fill="#000000" opacity="1.000000" stroke="none" d=" M428.628479,840.861511   C426.978668,833.084045 427.627197,825.612793 428.012390,818.180603   C428.164490,815.245605 430.135193,813.416809 433.454712,813.628601   C436.921753,813.849792 440.419006,813.272766 443.860413,814.285889   C451.652100,816.579773 454.541077,823.101807 450.492035,830.182129   C449.079285,832.652527 448.601135,834.561340 450.375824,836.947510   C451.485596,838.439575 452.326324,840.480957 450.428345,841.826843   C448.732147,843.029663 446.495880,842.849121 444.818726,841.509583   C443.550568,840.496765 442.590271,839.070068 441.596893,837.749451   C440.552185,836.360535 439.477875,835.131653 437.511139,835.509705   C435.597626,835.877502 435.608521,837.421814 435.291382,838.925415   C434.374268,843.273865 432.850647,843.774475 428.628479,840.861511  M437.065582,821.372009   C434.262695,822.174805 434.330811,824.434448 434.668121,826.572815   C435.012238,828.754395 436.906891,828.630127 438.581451,828.635742   C441.054443,828.643982 443.272034,827.993347 444.254456,825.514404   C444.985229,823.670471 443.970184,822.165405 442.245361,821.614746   C440.880951,821.179138 439.314911,821.374939 437.065582,821.372009  z"/>
<path fill="#000000" opacity="1.000000" stroke="none" d=" M492.528839,772.993286   C488.415405,774.683411 483.671448,772.388306 480.336029,775.545349   C480.897644,777.394836 481.859863,777.585938 482.900116,777.624390   C485.857605,777.733582 489.628021,777.169617 489.598907,781.522034   C489.572174,785.516968 485.955902,785.063904 483.171661,785.234375   C481.628845,785.328857 480.082916,785.389954 479.932190,787.796753   C482.730774,789.523987 485.929901,788.422668 488.934326,788.672058   C491.603241,788.893494 494.245178,789.281982 494.126007,792.634277   C494.022461,795.546997 491.672058,796.293091 489.115021,796.300293   C485.286926,796.311035 481.458160,796.334595 477.630829,796.277222   C474.463715,796.229736 472.539703,794.596680 472.526611,791.390869   C472.496796,784.077698 472.580475,776.762085 472.762543,769.451111   C472.820862,767.109802 474.429291,765.821899 476.707458,765.767212   C481.198456,765.659485 485.706726,765.502808 490.183258,765.773010   C494.776459,766.050232 495.706268,768.734009 492.528839,772.993286  z"/>
<path fill="#000000" opacity="1.000000" stroke="none" d=" M407.499329,834.712158   C410.592407,835.079956 411.728119,836.759705 411.423859,839.241333   C411.082214,842.028015 408.934052,842.377625 406.591949,842.349426   C402.274200,842.297363 397.954712,842.371399 393.637512,842.299622   C390.281189,842.243774 388.383728,840.653259 388.452454,837.078613   C388.564240,831.269348 388.675598,825.458679 388.659241,819.648926   C388.647675,815.525574 390.406708,813.494873 394.674500,813.648621   C398.655609,813.792114 402.645813,813.663269 406.631439,813.707397   C409.290466,813.736816 411.279449,814.770203 411.151184,817.765381   C411.033020,820.524292 408.955658,821.065063 406.620453,821.348694   C403.319031,821.749573 399.739716,820.293640 396.447235,822.656128   C397.744598,825.577271 400.191284,824.463440 402.092377,824.633850   C404.177795,824.820801 406.158875,824.811768 406.241791,827.690369   C406.326202,830.621033 404.641205,831.268677 402.126404,831.381531   C400.284424,831.464233 398.076660,830.538025 396.327393,833.271606   C399.698853,835.938599 403.619446,834.050293 407.499329,834.712158  z"/>
<path fill="#000000" opacity="1.000000" stroke="none" d=" M478.316467,838.867920   C477.038055,840.004944 476.154175,841.011902 475.126129,841.839905   C473.835388,842.879517 472.387878,842.910461 470.947632,842.049438   C469.575989,841.229309 469.303314,839.842468 469.693329,838.559937   C472.210052,830.283630 475.391388,822.228577 480.152527,815.010193   C482.117767,812.030640 485.642914,812.161438 487.605835,815.401001   C491.827301,822.367737 495.074097,829.835754 497.261597,837.702942   C497.678162,839.200989 497.917572,841.123291 496.025208,842.125549   C494.749573,842.801208 493.085327,842.812866 492.305481,841.748657   C488.587524,836.675232 483.467560,838.453369 478.316467,838.867920  M483.483002,830.613647   C488.733612,828.754578 484.000946,826.525818 483.790497,824.448120   C483.218719,826.459534 479.767273,828.047058 483.483002,830.613647  z"/>
<path fill="#000000" opacity="1.000000" stroke="none" d=" M643.183899,822.159912   C640.717712,821.571533 638.616211,819.015381 636.239319,822.052856   C637.931458,824.628479 640.660156,824.608276 642.878967,825.328674   C646.921631,826.641418 649.123169,829.391602 648.998108,833.399475   C648.876770,837.285645 646.831787,840.213135 642.796509,841.537903   C638.190491,843.050049 633.941345,842.507080 629.995728,839.828491   C628.171997,838.590393 626.364929,836.879395 627.673523,834.477844   C629.016724,832.012939 631.580566,832.086548 633.825928,833.060242   C635.929504,833.972534 637.810486,835.611877 640.197388,833.313171   C639.281860,830.699402 636.799683,830.887390 634.963440,830.134705   C631.284058,828.626526 627.838257,826.817627 627.763062,822.230957   C627.685242,817.481812 630.980530,815.266541 634.915588,813.724121   C639.259094,812.021606 643.196594,813.290039 646.475525,816.013916   C649.015320,818.123718 647.707275,820.630615 643.183899,822.159912  z"/>
<path fill="#000000" opacity="1.000000" stroke="none" d=" M584.813110,824.493713   C586.044189,815.075500 598.090698,809.811462 605.443054,815.165283   C607.405457,816.594177 610.110779,818.185486 608.470520,821.086670   C606.873291,823.911682 604.188171,823.812378 601.602539,821.952576   C599.183289,820.212463 596.969299,820.585815 594.907898,822.645508   C593.050049,824.501831 591.605347,826.487000 592.804932,829.265747   C593.932922,831.878967 595.729431,833.735596 598.787231,833.778320   C599.767395,833.792053 600.817749,833.684998 601.721619,833.336426   C604.379028,832.311584 607.384460,831.498535 608.553833,834.762878   C609.718384,838.013733 606.925537,839.857727 604.301086,841.106873   C596.194397,844.965271 585.728577,838.687317 584.745850,829.398254   C584.589417,827.919556 584.740295,826.408325 584.813110,824.493713  z"/>
<path fill="#000000" opacity="1.000000" stroke="none" d=" M317.473816,783.846497   C315.950439,784.158203 314.794525,784.324890 313.635040,784.355652   C310.003052,784.452087 308.035919,786.022583 308.318878,789.914124   C308.522339,792.712097 308.313873,795.762390 304.645874,795.761658   C300.754028,795.760925 300.614563,792.633179 300.649078,789.611938   C300.719513,783.447205 300.714722,777.281006 300.673889,771.115845   C300.649200,767.385986 302.356934,765.589172 306.139832,765.660583   C310.304199,765.739319 314.471497,765.707825 318.636932,765.665833   C321.373169,765.638306 323.960815,766.170288 324.051605,769.412231   C324.143463,772.693787 321.581573,773.245239 318.835541,773.366333   C315.461517,773.515198 311.955719,772.758789 308.432587,774.235474   C309.664368,778.095215 312.729065,776.615234 314.819092,777.131042   C319.261383,778.227356 319.877808,779.327515 317.473816,783.846497  z"/>
<path fill="#000000" opacity="1.000000" stroke="none" d=" M368.193176,832.875977   C371.451721,836.461792 369.144409,838.618896 366.528229,840.341492   C361.165314,843.872681 353.686981,842.327881 349.522308,837.050476   C344.996613,831.315613 345.314331,822.263123 350.215179,817.310547   C354.663727,812.815063 362.954651,811.901062 367.696350,815.420349   C369.536316,816.785950 371.154114,818.506836 369.693085,820.869446   C368.321625,823.087158 366.257141,823.774292 363.677948,822.329041   C360.812103,820.723206 357.850189,820.438721 355.647888,823.431152   C353.653137,826.141602 353.690521,829.120972 355.816772,831.744751   C358.078735,834.535950 360.863861,835.436279 364.129974,833.179993   C365.259003,832.400024 366.516144,831.961121 368.193176,832.875977  z"/>
<path fill="#000000" opacity="1.000000" stroke="none" d=" M688.004150,770.852295   C689.449524,769.242920 690.606689,767.814636 691.945374,766.583740   C693.410156,765.237000 695.175476,764.716980 696.903748,766.090332   C698.783691,767.584290 698.647217,769.580078 697.685608,771.491150   C697.174377,772.507141 696.273193,773.324463 695.563354,774.243347   C691.894043,778.993347 688.375244,783.736145 689.002441,790.326599   C689.240479,792.827942 688.671204,795.815857 685.485168,795.987732   C682.414734,796.153442 680.976074,793.367554 681.255737,790.852600   C682.040649,783.792297 678.419739,778.859009 674.179016,774.045654   C673.418274,773.182129 672.784668,772.170471 672.262573,771.140991   C671.386475,769.413452 670.989990,767.479675 672.749512,766.166687   C674.589844,764.793457 676.597595,765.233887 678.132446,766.888062   C680.266785,769.188416 682.271179,771.609314 684.257568,773.893982   C686.229187,773.694336 686.840393,772.197632 688.004150,770.852295  z"/>
<path fill="#000000" opacity="1.000000" stroke="none" d=" M357.223846,795.799927   C352.827820,796.038757 348.832855,796.315796 344.855499,796.155701   C339.630829,795.945374 338.223083,794.053894 338.409424,788.936951   C338.627380,782.952759 338.580780,776.959106 338.671600,770.969910   C338.707703,768.589294 338.669922,765.924744 341.986908,765.906311   C344.915527,765.890076 345.969604,768.216309 346.096619,770.658997   C346.329681,775.141724 346.394928,779.648499 346.214539,784.132568   C346.072296,787.668701 347.546448,788.985046 350.931610,788.699707   C352.417755,788.574463 353.925323,788.715271 355.423187,788.714600   C357.395294,788.713623 359.129578,789.259216 359.859222,791.254944   C360.642517,793.397522 359.418793,794.707520 357.223846,795.799927  z"/>
<path fill="#000000" opacity="1.000000" stroke="none" d=" M446.196960,304.762268   C443.333649,308.230652 440.363708,310.297058 436.047791,308.256500   C431.444855,306.080200 429.069031,301.883362 429.717865,296.955139   C430.253326,292.888092 432.960297,290.891968 436.613861,290.059143   C443.986145,288.378784 448.984314,295.762939 446.196960,304.762268  z"/>
<path fill="#000000" opacity="1.000000" stroke="none" d=" M567.340942,834.765564   C567.232422,836.558777 567.373413,837.966064 566.955688,839.181274   C566.331116,840.998413 565.032593,842.427368 562.856873,842.086365   C561.008362,841.796753 559.833008,840.415955 559.806091,838.623840   C559.698730,831.466736 559.656311,824.304443 559.830505,817.149902   C559.882507,815.013367 561.305664,813.259155 563.671448,813.312317   C566.402405,813.373718 567.254211,815.422546 567.281677,817.807617   C567.345032,823.302490 567.326111,828.798279 567.340942,834.765564  z"/>
<path fill="#000000" opacity="1.000000" stroke="none" d=" M559.937134,412.586609   C558.266663,412.238159 557.215698,411.611267 557.252197,409.569855   C559.121826,409.623077 561.016785,409.420044 562.924377,407.836334   C563.317383,411.011688 562.184143,412.069489 559.937134,412.586609  z"/>
</svg>